<svg aria-hidden="true" style="width:0;height:0;position:absolute;overflow:hidden" xmlns="http://www.w3.org/2000/svg"><defs><symbol id="icon-location" viewBox="0 0 24 32"><path fill="#fff" style="fill:var(--color1,#fff)" d="M12.16.88A11.894 11.894 0 0 0 .28 12.76a11.76 11.76 0 0 0 2.393 7.128s.324.427.377.488l9.11 10.744 9.114-10.749c.047-.057.373-.483.373-.483l.001-.003a11.757 11.757 0 0 0 2.392-7.125A11.894 11.894 0 0 0 12.16.88zm0 16.2a4.317 4.317 0 0 1-3.991-2.667 4.318 4.318 0 0 1 3.148-5.89 4.317 4.317 0 0 1 4.435 1.837 4.317 4.317 0 0 1-.539 5.453 4.328 4.328 0 0 1-3.053 1.267z"/></symbol><symbol id="icon-menu" viewBox="0 0 32 32"><path stroke-linejoin="round" stroke-linecap="round" stroke-width="2.667" d="M4 16h24M4 8h24M4 24h24"/></symbol><symbol id="icon-close" viewBox="0 0 32 32"><path stroke-linejoin="round" stroke-linecap="round" stroke-width="2.667" d="M24 8 8 24M8 8l16 16"/></symbol><symbol id="icon-map" viewBox="0 0 32 32"><path fill="none" stroke="#9da4bd" style="stroke:var(--color2,#9da4bd)" stroke-linejoin="round" stroke-linecap="round" stroke-width="1.333" d="M26.667 13.818C26.667 21.454 16 28 16 28S5.333 21.455 5.333 13.818C5.333 8.396 10.109 4 16 4s10.667 4.396 10.667 9.818v0z"/><path fill="none" stroke="#9da4bd" style="stroke:var(--color2,#9da4bd)" stroke-linejoin="round" stroke-linecap="round" stroke-width="1.333" d="M16 18.667a4 4 0 1 0 0-8 4 4 0 0 0 0 8z"/></symbol><symbol id="icon-toggle" viewBox="0 0 30 32"><path d="M30.118 16c0 8.317-6.742 15.059-15.059 15.059S0 24.317 0 16 6.742.941 15.059.941 30.118 7.683 30.118 16z"/></symbol><symbol id="icon-moon" viewBox="0 0 32 32"><path fill="none" stroke-linejoin="round" stroke-linecap="round" stroke-width="2.286" d="M28 17.053a11.994 11.994 0 0 1-7.873 10.182A12.003 12.003 0 0 1 4.338 18.56 12.002 12.002 0 0 1 14.946 3.999 9.335 9.335 0 0 0 28 17.053z"/></symbol><symbol id="icon-sun" viewBox="0 0 32 32"><path fill="none" stroke-linejoin="round" stroke-linecap="round" stroke-width="2.286" d="M16 1.778v2.586m0 23.272v2.586M5.941 5.941l1.836 1.836m16.446 16.446 1.836 1.836M1.778 16h2.586m23.272 0h2.586M5.941 26.059l1.836-1.836M24.223 7.777l1.836-1.836M22.465 16a6.465 6.465 0 1 1-12.93 0 6.465 6.465 0 0 1 12.93 0z"/></symbol><symbol id="icon-read" viewBox="0 0 32 32"><path fill="#4440f6" style="fill:var(--color6,#4440f6)" d="M32 16c0 8.837-7.163 16-16 16S0 24.837 0 16 7.163 0 16 0s16 7.163 16 16z"/><path fill="none" stroke="#f4f4f4" style="stroke:var(--color7,#f4f4f4)" stroke-linejoin="round" stroke-linecap="round" d="M8.5 9.25H13a3.004 3.004 0 0 1 3 3v10.5a2.25 2.25 0 0 0-2.25-2.25H8.5V9.25zM23.5 9.25H19a3.004 3.004 0 0 0-3 3v10.5a2.25 2.25 0 0 1 2.25-2.25h5.25V9.25z"/></symbol><symbol id="icon-favorite" viewBox="0 0 32 32"><path fill="#4440f6" style="fill:var(--color6,#4440f6)" d="M32 16c0 8.837-7.163 16-16 16S0 24.837 0 16 7.163 0 16 0s16 7.163 16 16z"/><path fill="none" stroke="#f4f4f4" style="stroke:var(--color7,#f4f4f4)" stroke-linejoin="round" stroke-linecap="round" d="M22.63 10.457a4.111 4.111 0 0 0-4.496-.895 4.1 4.1 0 0 0-1.338.895l-.795.795-.795-.795a4.125 4.125 0 0 0-5.836 0 4.125 4.125 0 0 0 0 5.835l6.63 6.63 6.63-6.63a4.111 4.111 0 0 0 .895-4.496 4.116 4.116 0 0 0-.895-1.338v0z"/></symbol><symbol id="icon-home" viewBox="0 0 32 32"><path fill="#4440f6" style="fill:var(--color6,#4440f6)" d="M32 16c0 8.837-7.163 16-16 16S0 24.837 0 16 7.163 0 16 0s16 7.163 16 16z"/><path fill="none" stroke="#f4f4f4" style="stroke:var(--color7,#f4f4f4)" stroke-linejoin="round" stroke-linecap="round" d="M9.25 13.75 16 8.5l6.75 5.25V22a1.503 1.503 0 0 1-1.5 1.5h-10.5a1.503 1.503 0 0 1-1.5-1.5v-8.25z"/><path fill="none" stroke="#f4f4f4" style="stroke:var(--color7,#f4f4f4)" stroke-linejoin="round" stroke-linecap="round" d="M13.75 23.5V16h4.5v7.5"/></symbol><symbol id="icon-heart-blue" viewBox="0 0 32 32"><path fill="#4b48da" style="fill:var(--color8,#4b48da)" d="M8.381 2.286C4.174 2.286.762 5.663.762 9.829c0 3.363 1.333 11.345 14.458 19.413a1.501 1.501 0 0 0 1.56 0c13.125-8.069 14.458-16.05 14.458-19.413 0-4.166-3.412-7.543-7.619-7.543S16 6.857 16 6.857s-3.412-4.571-7.619-4.571z"/></symbol><symbol id="icon-heart-white" viewBox="0 0 32 32"><path fill="none" stroke="#4440f7" style="stroke:var(--color3,#4440f7)" stroke-linejoin="round" stroke-linecap="round" stroke-width="2" d="M9.333 4c-3.681 0-6.667 2.955-6.667 6.6 0 2.943 1.167 9.927 12.651 16.987a1.316 1.316 0 0 0 1.366 0c11.484-7.06 12.651-14.044 12.651-16.987 0-3.645-2.985-6.6-6.667-6.6S16 8 16 8s-2.985-4-6.667-4z"/></symbol><symbol id="icon-up" viewBox="0 0 32 32"><path fill="#4440f6" style="fill:var(--color6,#4440f6)" d="M3.76 25.143 0 21.664 16 6.858l16 14.806-3.76 3.479L16 13.841 3.76 25.143z"/></symbol><symbol id="icon-down" viewBox="0 0 32 32"><path fill="#4440f6" style="fill:var(--color6,#4440f6)" d="M3.76 9.143 0 12.622l16 14.806 16-14.806-3.76-3.479L16 20.445 3.76 9.143z"/></symbol><symbol id="icon-date" viewBox="0 0 32 32"><path fill="#4440f7" style="fill:var(--color3,#4440f7)" d="M22.667 4H28a1.335 1.335 0 0 1 1.334 1.334v21.333A1.335 1.335 0 0 1 28 28.001H4a1.33 1.33 0 0 1-1.333-1.334V5.334A1.333 1.333 0 0 1 4 4h5.333V1.333H12V4h8V1.333h2.667V4zm4 10.667H5.334v10.667h21.333V14.667zm-6.667-8h-8v2.667H9.333V6.667h-4V12h21.333V6.667h-4v2.667h-2.667V6.667zM8 17.333h2.667V20H8v-2.667zm6.667 0h2.667V20h-2.667v-2.667zm6.666 0H24V20h-2.667v-2.667z"/></symbol><symbol id="icon-search" viewBox="0 0 32 32"><path d="M13.804 25.882c2.784-.001 5.488-.886 7.682-2.515l6.896 6.551 2.218-2.107-6.896-6.551c1.716-2.084 2.649-4.653 2.649-7.299 0-6.573-5.63-11.922-12.549-11.922S1.255 7.387 1.255 13.961c0 6.573 5.63 11.922 12.549 11.922zm0-20.863c5.191 0 9.412 4.01 9.412 8.941s-4.221 8.941-9.412 8.941c-5.191 0-9.412-4.01-9.412-8.941s4.221-8.941 9.412-8.941z"/></symbol></defs></svg>