<svg aria-hidden="true" style="position: absolute; width: 0; height: 0; overflow: hidden;" version="1.1" xmlns="http://www.w3.org/2000/svg" xmlns:xlink="http://www.w3.org/1999/xlink">
<defs>
<symbol id="icon-location" viewBox="0 0 24 32">
<path fill="#fff" style="fill: var(--color1, #fff)" d="M12.16 0.88c-3.15 0.004-6.169 1.257-8.396 3.484s-3.48 5.247-3.484 8.396c-0.004 2.574 0.837 5.078 2.393 7.128 0 0 0.324 0.427 0.377 0.488l9.11 10.744 9.114-10.749c0.047-0.057 0.373-0.483 0.373-0.483l0.001-0.003c1.555-2.049 2.396-4.552 2.392-7.125-0.004-3.15-1.257-6.169-3.484-8.396s-5.247-3.48-8.396-3.484zM12.16 17.080c-0.854 0-1.69-0.253-2.4-0.728s-1.264-1.149-1.591-1.939-0.413-1.658-0.246-2.496c0.167-0.838 0.578-1.608 1.182-2.212s1.374-1.016 2.212-1.182c0.838-0.167 1.707-0.081 2.496 0.246s1.464 0.881 1.939 1.591c0.475 0.71 0.728 1.546 0.728 2.4-0.001 1.145-0.457 2.243-1.267 3.053s-1.908 1.265-3.053 1.267z"></path>
</symbol>
<symbol id="icon-close" viewBox="0 0 32 32">
<path d="M8 6.667c-0.368 0-0.701 0.149-0.943 0.391v0c-0.241 0.241-0.39 0.575-0.39 0.943s0.149 0.701 0.39 0.943l7.057 7.057-7.057 7.057c-0.241 0.241-0.39 0.575-0.39 0.943s0.149 0.701 0.39 0.943v0c0.241 0.241 0.575 0.39 0.943 0.39s0.701-0.149 0.943-0.39l7.057-7.057 7.057 7.057c0.241 0.241 0.575 0.39 0.943 0.39s0.701-0.149 0.943-0.39v0c0.241-0.241 0.39-0.575 0.39-0.943s-0.149-0.701-0.39-0.943l-7.057-7.057 7.057-7.057c0.241-0.241 0.39-0.575 0.39-0.943s-0.149-0.701-0.39-0.943v0c-0.241-0.241-0.575-0.39-0.943-0.39s-0.701 0.149-0.943 0.39l-7.057 7.057-7.057-7.057c-0.241-0.241-0.575-0.391-0.943-0.391v0z"></path>
</symbol>
<symbol id="icon-menu" viewBox="0 0 32 32">
<path d="M4 14.667c-0.736 0-1.333 0.597-1.333 1.333v0c0 0.736 0.597 1.333 1.333 1.333v0h24c0.736 0 1.333-0.597 1.333-1.333v0c0-0.736-0.597-1.333-1.333-1.333v0z"></path>
<path d="M4 6.667c-0.736 0-1.333 0.597-1.333 1.333v0c0 0.736 0.597 1.333 1.333 1.333v0h24c0.736 0 1.333-0.597 1.333-1.333v0c0-0.736-0.597-1.333-1.333-1.333v0z"></path>
<path d="M4 22.667c-0.736 0-1.333 0.597-1.333 1.333v0c0 0.736 0.597 1.333 1.333 1.333v0h24c0.736 0 1.333-0.597 1.333-1.333v0c0-0.736-0.597-1.333-1.333-1.333v0z"></path>
</symbol>
<symbol id="icon-map" viewBox="0 0 32 32">
<path fill="none" stroke="#9da4bd" style="stroke: var(--color2, #9da4bd)" stroke-linejoin="round" stroke-linecap="round" stroke-miterlimit="4" stroke-width="1.3333" d="M26.667 13.818c0 7.636-10.667 14.182-10.667 14.182s-10.667-6.545-10.667-14.182c0-5.422 4.776-9.818 10.667-9.818s10.667 4.396 10.667 9.818v0z"></path>
<path fill="none" stroke="#9da4bd" style="stroke: var(--color2, #9da4bd)" stroke-linejoin="round" stroke-linecap="round" stroke-miterlimit="4" stroke-width="1.3333" d="M16 18.667c2.209 0 4-1.791 4-4s-1.791-4-4-4-4 1.791-4 4c0 2.209 1.791 4 4 4z"></path>
</symbol>
<symbol id="icon-toggle" viewBox="0 0 30 32">
<path d="M30.118 16c0 8.317-6.742 15.059-15.059 15.059s-15.059-6.742-15.059-15.059c0-8.317 6.742-15.059 15.059-15.059s15.059 6.742 15.059 15.059z"></path>
</symbol>
<symbol id="icon-moon" viewBox="0 0 32 32">
<path fill="none" stroke-linejoin="round" stroke-linecap="round" stroke-miterlimit="4" stroke-width="2.2857" d="M28 17.053c-0.21 2.27-1.061 4.433-2.456 6.236s-3.273 3.172-5.417 3.946c-2.144 0.774-4.464 0.922-6.688 0.426s-4.262-1.615-5.874-3.227c-1.612-1.612-2.731-3.649-3.227-5.874s-0.348-4.544 0.426-6.688 2.143-4.023 3.946-5.417c1.803-1.394 3.966-2.246 6.236-2.456-1.329 1.798-1.968 4.013-1.802 6.242s1.127 4.325 2.708 5.906c1.581 1.581 3.676 2.542 5.906 2.708s4.444-0.473 6.242-1.802v0z"></path>
</symbol>
<symbol id="icon-sun" viewBox="0 0 32 32">
<path fill="none" stroke-linejoin="round" stroke-linecap="round" stroke-miterlimit="4" stroke-width="2.2857" d="M16 1.778v2.586M16 27.636v2.586M5.941 5.941l1.836 1.836M24.223 24.223l1.836 1.836M1.778 16h2.586M27.636 16h2.586M5.941 26.059l1.836-1.836M24.223 7.777l1.836-1.836M22.465 16c0 3.57-2.894 6.465-6.465 6.465s-6.465-2.894-6.465-6.465c0-3.57 2.894-6.465 6.465-6.465s6.465 2.894 6.465 6.465z"></path>
</symbol>
<symbol id="icon-read" viewBox="0 0 32 32">
<path fill="#4440f6" style="fill: var(--color6, #4440f6)" d="M32 16c0 8.837-7.163 16-16 16s-16-7.163-16-16c0-8.837 7.163-16 16-16s16 7.163 16 16z"></path>
<path fill="none" stroke="#f4f4f4" style="stroke: var(--color7, #f4f4f4)" stroke-linejoin="round" stroke-linecap="round" stroke-miterlimit="4" stroke-width="1" d="M8.5 9.25h4.5c0.796 0 1.559 0.316 2.121 0.879s0.879 1.326 0.879 2.121v10.5c0-0.597-0.237-1.169-0.659-1.591s-0.994-0.659-1.591-0.659h-5.25v-11.25z"></path>
<path fill="none" stroke="#f4f4f4" style="stroke: var(--color7, #f4f4f4)" stroke-linejoin="round" stroke-linecap="round" stroke-miterlimit="4" stroke-width="1" d="M23.5 9.25h-4.5c-0.796 0-1.559 0.316-2.121 0.879s-0.879 1.326-0.879 2.121v10.5c0-0.597 0.237-1.169 0.659-1.591s0.994-0.659 1.591-0.659h5.25v-11.25z"></path>
</symbol>
<symbol id="icon-favorite" viewBox="0 0 32 32">
<path fill="#4440f6" style="fill: var(--color6, #4440f6)" d="M32 16c0 8.837-7.163 16-16 16s-16-7.163-16-16c0-8.837 7.163-16 16-16s16 7.163 16 16z"></path>
<path fill="none" stroke="#f4f4f4" style="stroke: var(--color7, #f4f4f4)" stroke-linejoin="round" stroke-linecap="round" stroke-miterlimit="4" stroke-width="1" d="M22.63 10.457c-0.383-0.383-0.838-0.687-1.338-0.895s-1.037-0.314-1.579-0.314c-0.542 0-1.078 0.107-1.579 0.314s-0.955 0.511-1.338 0.895l-0.795 0.795-0.795-0.795c-0.774-0.774-1.823-1.208-2.918-1.208s-2.144 0.435-2.918 1.208c-0.774 0.774-1.208 1.823-1.208 2.918s0.435 2.144 1.208 2.917l6.63 6.63 6.63-6.63c0.383-0.383 0.687-0.838 0.895-1.338s0.314-1.037 0.314-1.579c0-0.542-0.107-1.078-0.314-1.579s-0.512-0.955-0.895-1.338v0z"></path>
</symbol>
<symbol id="icon-home" viewBox="0 0 32 32">
<path fill="#4440f6" style="fill: var(--color6, #4440f6)" d="M32 16c0 8.837-7.163 16-16 16s-16-7.163-16-16c0-8.837 7.163-16 16-16s16 7.163 16 16z"></path>
<path fill="none" stroke="#f4f4f4" style="stroke: var(--color7, #f4f4f4)" stroke-linejoin="round" stroke-linecap="round" stroke-miterlimit="4" stroke-width="1" d="M9.25 13.75l6.75-5.25 6.75 5.25v8.25c0 0.398-0.158 0.779-0.439 1.061s-0.663 0.439-1.061 0.439h-10.5c-0.398 0-0.779-0.158-1.061-0.439s-0.439-0.663-0.439-1.061v-8.25z"></path>
<path fill="none" stroke="#f4f4f4" style="stroke: var(--color7, #f4f4f4)" stroke-linejoin="round" stroke-linecap="round" stroke-miterlimit="4" stroke-width="1" d="M13.75 23.5v-7.5h4.5v7.5"></path>
</symbol>
<symbol id="icon-heart-blue" viewBox="0 0 32 32">
<path fill="#4b48da" style="fill: var(--color8, #4b48da)" d="M8.381 2.286c-4.207 0-7.619 3.377-7.619 7.543 0 3.363 1.333 11.345 14.458 19.413 0.235 0.143 0.505 0.219 0.78 0.219s0.545-0.076 0.78-0.219c13.125-8.069 14.458-16.050 14.458-19.413 0-4.166-3.412-7.543-7.619-7.543s-7.619 4.571-7.619 4.571-3.412-4.571-7.619-4.571z"></path>
</symbol>
<symbol id="icon-heart-white" viewBox="0 0 32 32">
<path fill="none" stroke="#4440f7" style="stroke: var(--color3, #4440f7)" stroke-linejoin="round" stroke-linecap="round" stroke-miterlimit="4" stroke-width="2" d="M9.333 4c-3.681 0-6.667 2.955-6.667 6.6 0 2.943 1.167 9.927 12.651 16.987 0.206 0.125 0.442 0.191 0.683 0.191s0.477-0.066 0.683-0.191c11.484-7.060 12.651-14.044 12.651-16.987 0-3.645-2.985-6.6-6.667-6.6s-6.667 4-6.667 4-2.985-4-6.667-4z"></path>
</symbol>
<symbol id="icon-up" viewBox="0 0 32 32">
<path fill="#4440f6" style="fill: var(--color6, #4440f6)" d="M3.76 25.143l-3.76-3.479 16-14.806 16 14.806-3.76 3.479-12.24-11.302-12.24 11.302z"></path>
</symbol>
<symbol id="icon-down" viewBox="0 0 32 32">
<path fill="#4440f6" style="fill: var(--color6, #4440f6)" d="M3.76 9.143l-3.76 3.479 16 14.806 16-14.806-3.76-3.479-12.24 11.302-12.24-11.302z"></path>
</symbol>
<symbol id="icon-date" viewBox="0 0 32 32">
<path d="M22.667 4h5.333c0.354 0 0.693 0.14 0.943 0.391s0.391 0.589 0.391 0.943v21.333c0 0.354-0.14 0.693-0.391 0.943s-0.589 0.391-0.943 0.391h-24c-0.354 0-0.693-0.14-0.943-0.391s-0.39-0.589-0.39-0.943v-21.333c0-0.354 0.14-0.693 0.39-0.943s0.589-0.391 0.943-0.391h5.333v-2.667h2.667v2.667h8v-2.667h2.667v2.667zM26.667 14.667h-21.333v10.667h21.333v-10.667zM20 6.667h-8v2.667h-2.667v-2.667h-4v5.333h21.333v-5.333h-4v2.667h-2.667v-2.667zM8 17.333h2.667v2.667h-2.667v-2.667zM14.667 17.333h2.667v2.667h-2.667v-2.667zM21.333 17.333h2.667v2.667h-2.667v-2.667z"></path>
</symbol>
<symbol id="icon-search" viewBox="0 0 32 32">
<path d="M13.804 25.882c2.784-0.001 5.488-0.886 7.682-2.515l6.896 6.551 2.218-2.107-6.896-6.551c1.716-2.084 2.649-4.653 2.649-7.299 0-6.573-5.63-11.922-12.549-11.922s-12.549 5.348-12.549 11.922c0 6.573 5.63 11.922 12.549 11.922zM13.804 5.019c5.191 0 9.412 4.010 9.412 8.941s-4.221 8.941-9.412 8.941c-5.191 0-9.412-4.010-9.412-8.941s4.221-8.941 9.412-8.941z"></path>
</symbol>
<symbol id="icon-chevron-right" viewBox="0 0 32 32">
<path fill="#f4f4f4" style="fill: var(--color1, #f4f4f4)" d="M12 6.667c-0.368 0-0.701 0.149-0.943 0.391v0c-0.241 0.241-0.39 0.575-0.39 0.943s0.149 0.701 0.39 0.943l7.057 7.057-7.057 7.057c-0.241 0.241-0.39 0.575-0.39 0.943s0.149 0.701 0.39 0.943v0c0.241 0.241 0.575 0.39 0.943 0.39s0.701-0.149 0.943-0.39l8-8c0.241-0.241 0.39-0.575 0.39-0.943s-0.149-0.701-0.39-0.943l-8-8c-0.241-0.241-0.575-0.391-0.943-0.391v0z"></path>
</symbol>
<symbol id="icon-calendar" viewBox="0 0 32 32">
<path d="M23.452 4.471h5.961c0.395 0 0.774 0.157 1.054 0.436s0.437 0.659 0.437 1.054v23.843c0 0.395-0.157 0.774-0.437 1.054s-0.658 0.437-1.054 0.437h-26.824c-0.395 0-0.774-0.157-1.054-0.437s-0.436-0.658-0.436-1.054v-23.843c0-0.395 0.157-0.774 0.436-1.054s0.658-0.436 1.054-0.436h5.961v-2.98h2.98v2.98h8.941v-2.98h2.98v2.98zM27.923 16.392h-23.843v11.921h23.843v-11.922zM20.472 7.451h-8.941v2.98h-2.98v-2.98h-4.471v5.961h23.843v-5.961h-4.471v2.98h-2.98v-2.98zM7.060 19.373h2.98v2.981h-2.98v-2.981zM14.511 19.373h2.98v2.981h-2.98v-2.981zM21.962 19.373h2.981v2.981h-2.981v-2.981z"></path>
</symbol>
</defs>
</svg>
